HIERARCHY
ROOT hip
{
  OFFSET 0 0 0
  CHANNELS 6 Xposition Yposition Zposition Zrotation Yrotation Xrotation
  JOINT abdomen
  {
    OFFSET 0 20.6881 -0.73152
    CHANNELS 3 Zrotation Xrotation Yrotation
    JOINT chest
    {
      OFFSET 0 11.7043 -0.48768
      CHANNELS 3 Zrotation Xrotation Yrotation
      JOINT neck
      {
        OFFSET 0 22.1894 -2.19456
        CHANNELS 3 Zrotation Xrotation Yrotation
        JOINT head
        {
          OFFSET -0.24384 7.07133 1.2192
          CHANNELS 3 Zrotation Xrotation Yrotation
          JOINT leftEye
          {
            OFFSET 4.14528 8.04674 8.04672
            CHANNELS 3 Zrotation Xrotation Yrotation
            End Site
            {
              OFFSET 1 0 0
            }
          }
          JOINT rightEye
          {
            OFFSET -3.6576 8.04674 8.04672
            CHANNELS 3 Zrotation Xrotation Yrotation
            End Site
            {
              OFFSET 1 0 0
            }
          }
        }
      }
      JOINT rCollar
      {
        OFFSET -2.68224 19.2634 -4.8768
        CHANNELS 3 Zrotation Xrotation Yrotation
        JOINT rShldr
        {
          OFFSET -8.77824 -1.95073 1.46304
          CHANNELS 3 Zrotation Xrotation Yrotation
          JOINT rForeArm
          {
            OFFSET -28.1742 -1.7115 0.48768
            CHANNELS 3 Zrotation Xrotation Yrotation
            JOINT rHand
            {
              OFFSET -22.5879 0.773209 7.07136
              CHANNELS 3 Zrotation Xrotation Yrotation
              JOINT rThumb1
              {
                OFFSET -1.2192 -0.487915 3.41376
                CHANNELS 3 Zrotation Xrotation Yrotation
                JOINT rThumb2
                {
                  OFFSET -3.37035 -0.52449 3.41376
                  CHANNELS 3 Zrotation Xrotation Yrotation
                  End Site
                  {
                    OFFSET -1.78271 -1.18214 1.43049
                  }
                }
              }
              JOINT rIndex1
              {
                OFFSET -7.75947 0.938293 5.60832
                CHANNELS 3 Zrotation Xrotation Yrotation
                JOINT rIndex2
                {
                  OFFSET -2.54057 -0.884171 1.56538
                  CHANNELS 3 Zrotation Xrotation Yrotation
                  End Site
                  {
                    OFFSET -1.62519 -0.234802 1.16502
                  }
                }
              }
              JOINT rMid1
              {
                OFFSET -8.24714 1.18213 3.41376
                CHANNELS 3 Zrotation Xrotation Yrotation
                JOINT rMid2
                {
                  OFFSET -3.10165 -0.590103 1.0647
                  CHANNELS 3 Zrotation Xrotation Yrotation
                  End Site
                  {
                    OFFSET -2.48547 -0.328903 0.83742
                  }
                }
              }
              JOINT rRing1
              {
                OFFSET -8.82822 0.546677 1.51678
                CHANNELS 3 Zrotation Xrotation Yrotation
                JOINT rRing2
                {
                  OFFSET -2.60934 -0.819778 -0.0198488
                  CHANNELS 3 Zrotation Xrotation Yrotation
                  End Site
                  {
                    OFFSET -2.33842 -0.294052 0.168128
                  }
                }
              }
              JOINT rPinky1
              {
                OFFSET -8.27202 -0.0477905 -0.4584
                CHANNELS 3 Zrotation Xrotation Yrotation
                JOINT rPinky2
                {
                  OFFSET -1.82734 -0.647385 -0.700984
                  CHANNELS 3 Zrotation Xrotation Yrotation
                  End Site
                  {
                    OFFSET -1.69225 -0.51767 -0.607171
                  }
                }
              }
            }
          }
        }
      }
      JOINT lCollar
      {
        OFFSET 2.68224 19.2634 -4.8768
        CHANNELS 3 Zrotation Xrotation Yrotation
        JOINT lShldr
        {
          OFFSET 8.77824 -1.95073 1.46304
          CHANNELS 3 Zrotation Xrotation Yrotation
          JOINT lForeArm
          {
            OFFSET 28.1742 -1.7115 0.48768
            CHANNELS 3 Zrotation Xrotation Yrotation
            JOINT lHand
            {
              OFFSET 22.5879 0.773209 7.07136
              CHANNELS 3 Zrotation Xrotation Yrotation
              JOINT lThumb1
              {
                OFFSET 1.2192 -0.487915 3.41376
                CHANNELS 3 Zrotation Xrotation Yrotation
                JOINT lThumb2
                {
                  OFFSET 3.37035 -0.52449 3.41376
                  CHANNELS 3 Zrotation Xrotation Yrotation
                  End Site
                  {
                    OFFSET 1.78271 -1.18214 1.43049
                  }
                }
              }
              JOINT lIndex1
              {
                OFFSET 7.75947 0.938293 5.60832
                CHANNELS 3 Zrotation Xrotation Yrotation
                JOINT lIndex2
                {
                  OFFSET 2.54057 -0.884171 1.56538
                  CHANNELS 3 Zrotation Xrotation Yrotation
                  End Site
                  {
                    OFFSET 1.62519 -0.234802 1.16502
                  }
                }
              }
              JOINT lMid1
              {
                OFFSET 8.24714 1.18213 3.41376
                CHANNELS 3 Zrotation Xrotation Yrotation
                JOINT lMid2
                {
                  OFFSET 3.10165 -0.590103 1.0647
                  CHANNELS 3 Zrotation Xrotation Yrotation
                  End Site
                  {
                    OFFSET 2.48547 -0.328903 0.83742
                  }
                }
              }
              JOINT lRing1
              {
                OFFSET 8.82822 0.546677 1.51678
                CHANNELS 3 Zrotation Xrotation Yrotation
                JOINT lRing2
                {
                  OFFSET 2.60934 -0.819778 -0.0198488
                  CHANNELS 3 Zrotation Xrotation Yrotation
                  End Site
                  {
                    OFFSET 2.33842 -0.294052 0.168128
                  }
                }
              }
              JOINT lPinky1
              {
                OFFSET 8.27202 -0.0477905 -0.4584
                CHANNELS 3 Zrotation Xrotation Yrotation
                JOINT lPinky2
                {
                  OFFSET 1.82734 -0.647385 -0.700984
                  CHANNELS 3 Zrotation Xrotation Yrotation
                  End Site
                  {
                    OFFSET 1.69225 -0.51767 -0.607171
                  }
                }
              }
            }
          }
        }
      }
    }
  }
  JOINT rButtock
  {
    OFFSET -8.77824 4.35084 1.2192
    CHANNELS 3 Zrotation Xrotation Yrotation
    JOINT rThigh
    {
      OFFSET 0 -1.70687 -2.19456
      CHANNELS 3 Zrotation Xrotation Yrotation
      JOINT rShin
      {
        OFFSET 0 -36.8199 0.73152
        CHANNELS 3 Zrotation Xrotation Yrotation
        JOINT rFoot
        {
          OFFSET 0.73152 -45.1104 -5.12064
          CHANNELS 3 Zrotation Xrotation Yrotation
          End Site
          {
            OFFSET -1.1221 -3.69964 12.103
          }
        }
      }
    }
  }
  JOINT lButtock
  {
    OFFSET 8.77824 4.35084 1.2192
    CHANNELS 3 Zrotation Xrotation Yrotation
    JOINT lThigh
    {
      OFFSET 0 -1.70687 -2.19456
      CHANNELS 3 Zrotation Xrotation Yrotation
      JOINT lShin
      {
        OFFSET 0 -36.8199 0.73152
        CHANNELS 3 Zrotation Xrotation Yrotation
        JOINT lFoot
        {
          OFFSET -0.73152 -45.1104 -5.12064
          CHANNELS 3 Zrotation Xrotation Yrotation
          End Site
          {
            OFFSET 1.1221 -3.69964 12.103
          }
        }
      }
    }
  }
}
MOTION
Frames:	4
Frame Time:	0.03333
0.0 0.0 0.0 0.0 0.0 0.0 0.0 0.0 0.0 0.0 0.0 0.0 0.0 0.0 0.0 0.0 0.0 0.0 0.0 0.0 0.0 0.0 0.0 0.0 0.0 0.0 0.0 0.0 0.0 0.0 0.0 0.0 0.0 0.0 0.0 0.0 0.0 0.0 0.0 0.0 0.0 0.0 0.0 0.0 0.0 0.0 0.0 0.0 0.0 0.0 0.0 0.0 0.0 0.0 0.0 0.0 0.0 0.0 0.0 0.0 0.0 0.0 0.0 0.0 0.0 0.0 0.0 0.0 0.0 0.0 0.0 0.0 0.0 0.0 0.0 0.0 0.0 0.0 0.0 0.0 0.0 0.0 0.0 0.0 0.0 0.0 0.0 0.0 0.0 0.0 0.0 0.0 0.0 0.0 0.0 0.0 0.0 0.0 0.0 0.0 0.0 0.0 0.0 0.0 0.0 0.0 0.0 0.0 0.0 0.0 0.0 0.0 0.0 0.0 0.0 0.0 0.0 0.0 0.0 0.0 0.0 0.0 0.0 0.0 0.0 0.0 0.0 0.0 0.0 0.0 0.0 0.0
0.0959 63.55929999999999 -0.019 -179.869847 51.264927 179.272649 0.027859 -1.319629 -165.204595 10.073502 -0.856858 -85.707838 -9.422534 -12.663382 -66.645276 -18.238414 49.720318 -151.783983 79.293832 16.548967 19.908211 8.902519 2.963165 36.758113 -87.859006 -35.422886 159.02411 -171.083548 -6.848096 164.54513 -9.090698 -67.829816 124.005005 -17.017206 17.945504 -42.683425 -22.15334 8.612052 69.768215 41.037322 -38.871813 -130.63425 -15.748623 12.345292 -128.842373 -155.931056 64.096589 -33.859264 -14.576892 -9.827461 -115.540175 -4.526346 -30.163397 6.025582 -75.794371 33.068719 -113.343787 -123.585895 18.507463 162.004648 165.305138 14.609878 -56.981009 30.88383 68.332643 -30.560977 -66.773213 22.151945 -15.607812 158.961419 22.02228 -173.801414 -0.779057 37.482214 -168.452646 -10.465108 -5.260517 73.667787 -6.50281 -23.371787 -48.522534 172.113018 -60.490679 -89.025856 -36.15673 -27.454912 -54.335032 178.144371 -23.662432 -61.312151 61.060686 -60.124385 -123.357569 -156.6115 -40.324138 94.401574 -89.947108 8.541065 103.766603 -25.845423 -59.170462 -52.439105 100.00855 15.47974 87.285675 136.182242 -30.06952 111.997837 -23.756322 -61.006176 -30.628941 -5.567041 65.382018 2.476104 -9.056941 -1.238715 -76.495494 -72.227392 4.896884 106.612233 -56.553677 2.177213 -86.541113 6.99081 55.692385 -176.165794 -5.974302 -0.865832 -98.324369 74.09004 18.701947 -97.842535
-1.5622 58.140800000000006 -0.2505 110.698728 86.76252 115.852375 -2.578597 10.556361 -165.771529 -1.262122 6.753919 169.700144 -12.295091 28.165296 -104.371123 36.044618 26.870128 112.486802 -13.743421 -1.213596 10.044872 2.339209 0.139104 6.805398 -3.527581 18.96863 8.462125 59.881553 -25.284718 24.170898 -141.080076 -32.932662 70.89395 158.517927 -36.725349 136.995376 179.091937 -18.782832 96.152588 -159.912863 -1.011987 80.91632 10.627199 -2.45384 -9.324612 172.913927 -19.679144 102.16424 12.769918 -50.646701 -11.0182 -34.78086 15.865348 3.301614 12.456365 1.774721 -0.821432 164.388144 -2.685738 164.547968 -149.848337 19.334668 -153.117275 -82.945346 53.067707 125.579243 151.426067 -0.247448 -167.752042 39.330739 -5.24544 5.601851 2.45712 -26.317242 127.194957 -168.05485 -22.014242 -139.969671 5.068189 -0.437807 10.082113 -48.603004 -73.542018 -24.855237 129.556652 17.292375 -101.875112 -16.731302 26.710148 20.265512 120.358257 33.933 -90.381943 2.944767 23.167053 -25.243246 -53.74397 -61.301883 -52.127603 45.402925 0.057441 29.419856 -55.545631 45.319639 0.665821 161.353486 -23.570637 90.199118 -159.775931 75.707875 -12.137591 140.756683 40.307737 76.889232 49.656985 20.402672 -73.501348 -115.511323 -4.899762 13.547245 57.566676 44.358627 67.110813 -105.308117 -19.81689 -23.802921 81.097545 67.713925 7.080448 -154.030435 11.374389 67.787668
-2.8253 59.810700000000004 -1.6004999999999998 66.257556 79.595988 72.73755 0.434364 12.707622 -0.969124 -0.854881 -7.008141 4.088874 -7.916743 6.512556 -5.205239 8.105424 -13.732269 27.834978 20.793464 10.14552 51.636933 -35.879989 -8.478304 25.79025 -23.804557 53.290238 35.153029 -84.067868 42.02743 98.356133 -8.00038 48.562006 -128.207375 176.378352 -17.833891 144.563834 -171.917446 -22.512985 89.423286 -12.219434 -19.682572 11.356467 -104.348038 19.419275 92.171142 -100.421539 53.820378 88.690518 -121.557514 -46.407138 176.466467 -149.473038 -22.149705 141.00458 -101.242549 40.813094 138.24151 72.174396 55.48098 -31.507332 -94.618387 58.179634 138.522145 -51.382566 46.016222 168.377015 -3.060209 18.833112 3.431988 113.570721 -10.65758 -151.976922 148.0883 54.570361 116.801111 3.531663 -1.55049 -1.08707 -176.429935 -25.807022 -91.390304 135.20341 -60.379957 -74.572921 -12.450267 -15.54378 -1.063923 174.402345 -14.82043 -111.106944 154.658375 27.5126 -121.407711 165.596021 -0.888913 -135.498617 89.657493 16.264286 -97.880687 51.54074 -5.582051 -147.59026 31.294797 -41.875751 56.361684 -23.087906 -65.079857 -55.699223 -43.899016 26.586743 -60.212816 63.096515 -7.909872 -78.844828 -65.679533 -17.031795 -129.148214 145.341253 35.158599 144.913545 8.472399 19.805513 29.967381 -178.177394 -68.899926 -178.697902 -125.579259 69.917924 116.250629 156.45737 -23.753028 -28.766215
